Coordinates
version=1
nRows=13
nColumns=36
inDegrees=yes

Units are S.I. units (second, meters, Newtons, ...)
If the header above contains a line with 'inDegrees', this indicates whether rotational values are in degrees (yes) or radians (no).

endheader
time	pelvis_tilt	pelvis_list	pelvis_rotation	pelvis_tx	pelvis_ty	pelvis_tz	hip_flexion_r	hip_adduction_r	hip_rotation_r	knee_angle_r	knee_angle_r_beta	ankle_angle_r	subtalar_angle_r	mtp_angle_r	hip_flexion_l	hip_adduction_l	hip_rotation_l	knee_angle_l	knee_angle_l_beta	ankle_angle_l	subtalar_angle_l	mtp_angle_l	lumbar_extension	lumbar_bending	lumbar_rotation	arm_flex_r	arm_add_r	arm_rot_r	elbow_flex_r	pro_sup_r	arm_flex_l	arm_add_l	arm_rot_l	elbow_flex_l	pro_sup_l
      0.76000000	      0.60939731	      1.11587860	      0.13631519	      0.84011436	      1.13978391	     -0.21572990	     -0.42427760	      0.00166063	     -2.34400666	     45.51511381	      0.79438860	    -10.61652126	    -11.14062650	     -6.58141228	     17.76958830	      3.94152590	     -2.73292727	     18.80888581	      0.32827699	     -0.55278964	     -8.20250089	     -6.58141228	    -11.91459735	     -2.28282458	      0.86823294	    -13.01204433	     -6.88016440	    -13.16119310	     49.45875377	    111.48498915	    -11.70957265	     -2.71594125	    -14.93277532	     45.37371402	    108.32939762
      0.77000000	      0.35152253	      1.20792970	     -0.33198185	      0.84998541	      1.14053552	     -0.21576323	      1.57058559	     -0.19614850	     -1.56875271	     48.56984380	      0.84770369	    -12.90160446	    -12.32995100	     -6.60571457	     17.47068915	      3.93794776	     -3.20130584	     18.84215702	      0.32885768	     -0.06702168	     -8.12800326	     -6.60571457	    -11.64837515	     -2.53751270	      1.03513230	    -13.04926493	     -6.94736417	    -12.76486850	     49.22975820	    111.57700675	    -11.92163945	     -2.81930310	    -14.95290100	     45.76342333	    108.45569979
      0.78000000	      0.32063768	      1.37785440	     -0.77044362	      0.85986639	      1.14159654	     -0.21585056	      3.28956315	     -0.47870121	     -0.87397710	     51.44253752	      0.89784166	    -14.47313451	    -12.82001064	     -6.62746854	     16.84423318	      4.06231698	     -3.51984655	     18.71137032	      0.32657502	      0.47806284	     -8.13136716	     -6.62746854	    -11.64843279	     -2.86205547	      1.15787697	    -13.06783825	     -7.00377795	    -12.41241535	     49.10850847	    111.64746550	    -12.07490043	     -2.97532298	    -14.93972253	     46.13914248	    108.55725747
      0.79000000	      0.43851338	      1.54804556	     -1.16125765	      0.86975504	      1.14288039	     -0.21606875	      4.79908198	     -0.76133816	     -0.28063011	     54.08890995	      0.94402957	    -15.39372566	    -12.96157405	     -6.63527954	     16.00707676	      4.23810105	     -3.67735550	     18.47918593	      0.32252264	      1.04874147	     -8.22451696	     -6.63527954	    -11.81096247	     -3.15286454	      1.24497142	    -13.09748806	     -7.02993904	    -12.20174808	     49.07495172	    111.68067177	    -12.15724558	     -3.09504869	    -14.87488380	     46.40946864	    108.60766829
      0.80000000	      0.44947353	      1.66052033	     -1.49194758	      0.87948058	      1.14404009	     -0.21626021	      6.40249835	     -0.92941764	      0.26882735	     56.53030780	      0.98664000	    -15.91708551	    -13.41427509	     -6.64311597	     15.32573844	      4.35269333	     -3.82207366	     18.29177249	      0.31925166	      1.48445604	     -8.24681623	     -6.64311597	    -11.85246670	     -3.35961554	      1.22885665	    -13.10091998	     -7.05934557	    -11.95635620	     49.03426320	    111.71819790	    -12.27509367	     -3.25926426	    -14.78306658	     46.70611403	    108.66167586
      0.81000000	      0.41963758	      1.70073670	     -1.73970644	      0.88911856	      1.14519392	     -0.21647984	      8.00529676	     -1.00480136	      0.68380561	     58.72768491	      1.02499146	    -16.02067179	    -14.07187559	     -6.65232252	     14.70153145	      4.40387328	     -3.93103135	     18.11334031	      0.31613743	      1.87501815	     -8.22605860	     -6.65232252	    -11.85421007	     -3.47045562	      1.12825136	    -13.08332265	     -7.10162027	    -11.68511745	     48.96339824	    111.76007257	    -12.40173800	     -3.42079177	    -14.69600203	     46.98346892	    108.71364122
      0.82000000	      0.45278212	      1.67848061	     -1.93690513	      0.89869413	      1.14650471	     -0.21672663	      9.46614426	     -0.97440154	      1.06800517	     60.62043417	      1.05802617	    -15.71782859	    -14.76366392	     -6.66066292	     13.98964094	      4.40977309	     -3.96246897	     17.89576195	      0.31233997	      2.25021518	     -8.18487254	     -6.66066292	    -11.92025859	     -3.48928932	      0.94761423	    -13.04162026	     -7.12654090	    -11.47560080	     48.92554825	    111.79654699	    -12.48878105	     -3.57231350	    -14.63883799	     47.18030521	    108.75128287
      0.83000000	      0.50268574	      1.60788908	     -2.10265249	      0.90818106	      1.14789218	     -0.21700839	     10.86347849	     -0.88508208	      1.39808826	     62.23716183	      1.08624339	    -15.14217898	    -15.47656919	     -6.66761587	     13.22996727	      4.37638141	     -3.98398081	     17.60182782	      0.30720985	      2.59376326	     -8.12196210	     -6.66761587	    -12.03534874	     -3.43889588	      0.74432925	    -13.00656590	     -7.13857187	    -11.33124571	     48.92193901	    111.82614678	    -12.54160852	     -3.70890334	    -14.59666126	     47.34201666	    108.77985867
      0.84000000	      0.55572892	      1.51219775	     -2.26182496	      0.91760938	      1.14932567	     -0.21727429	     12.20483059	     -0.75029379	      1.71266040	     63.56459971	      1.10941155	    -14.43704669	    -16.18939878	     -6.67329942	     12.43353276	      4.32095359	     -4.00956900	     17.23902900	      0.30087782	      2.90588994	     -8.03728199	     -6.67329942	    -12.14393844	     -3.34648012	      0.54166111	    -12.98676502	     -7.13737097	    -11.24162328	     48.95437251	    111.84995695	    -12.58679813	     -3.83515674	    -14.56637601	     47.48155712	    108.80174573
      0.85000000	      0.55054798	      1.47323017	     -2.38652986	      0.92696595	      1.15064668	     -0.21765084	     13.58798485	     -0.70511406	      1.94589933	     64.66688167	      1.12865000	    -13.58074878	    -16.88374878	     -6.68524742	     11.70432232	      4.32902028	     -4.13177844	     16.86089043	      0.29427805	      3.22486165	     -7.83421095	     -6.68524742	    -12.19605250	     -3.30743772	      0.36544646	    -13.02093119	     -7.15753195	    -11.12729562	     48.98017532	    111.88852164	    -12.61402080	     -3.93782559	    -14.55629298	     47.75674617	    108.83462918
      0.86000000	      0.59638686	      1.32486006	     -2.52673264	      0.93632829	      1.15211874	     -0.21794222	     14.82063957	     -0.49217687	      2.22338761	     65.38980618	      1.14126742	    -12.90934272	    -17.51003402	     -6.69094592	     10.83438465	      4.23597902	     -4.21946128	     16.31354497	      0.28472507	      3.50500426	     -7.72545888	     -6.69094592	    -12.30130539	     -3.13182360	      0.16688083	    -13.02403824	     -7.14098976	    -11.12685817	     49.07678562	    111.90344632	    -12.60719426	     -4.03417384	    -14.56350178	     47.87903002	    108.84693243
      0.87000000	      0.63065607	      1.20515207	     -2.66302674	      0.94565831	      1.15351966	     -0.21826669	     16.02140632	     -0.31762365	      2.47487514	     65.86739516	      1.14960292	    -12.26387383	    -18.13224893	     -6.69560538	      9.96380994	      4.17481517	     -4.32589734	     15.73686241	      0.27466006	      3.74437080	     -7.58296780	     -6.69560538	    -12.40726249	     -2.97655470	     -0.01237367	    -13.07188618	     -7.13226413	    -11.15675212	     49.20303857	    111.91344007	    -12.59077748	     -4.11847959	    -14.57144232	     48.03885421	    108.86121891
      0.88000000	      0.65644061	      1.09331547	     -2.78085598	      0.95490595	      1.15485473	     -0.21860599	     17.17540397	     -0.16256276	      2.67549333	     66.07531529	      1.15323181	    -11.63638186	    -18.74161727	     -6.70001663	      9.09320840	      4.12756578	     -4.45420570	     15.11968283	      0.26388825	      3.96290068	     -7.40988660	     -6.70001663	    -12.52288998	     -2.83205647	     -0.16902017	    -13.13395409	     -7.12033754	    -11.20871097	     49.36211375	    111.92038689	    -12.54209070	     -4.19345230	    -14.58896122	     48.23990961	    108.87793334
